#!OML:ASF F:\VICON\USERDATA\INSTALL\rory3\rory3.ASF
:FULLY-SPECIFIED
:DEGREES
309
root 0.571423 17.9141 -0.350252 1.58946 -30.9887 3.3427
lowerback 2.15573 -1.28111 -4.36827
upperback -0.926146 -1.79136 2.88135
thorax -1.93946 -0.82298 5.50574
lowerneck -27.9099 -0.686535 -10.0892
upperneck -10.8683 1.64984 7.42287
head 0.68212 1.25428 4.12197
rclavicle -4.58696e-014 -7.95139e-015
rhumerus -34.1379 -6.77767 -70.3852
rradius 38.9144
rwrist 14.2505
rhand -26.7527 12.0445
rfingers 7.12502
rthumb -0.181197 -17.9352
lclavicle -4.58696e-014 -7.95139e-015
lhumerus 64.5123 15.2683 46.5089
lradius 95.4313
lwrist -3.9752
lhand -41.0629 20.2055
lfingers 7.12502
lthumb -13.9922 49.7146
rfemur -10.9975 2.82048 8.79991
rtibia 26.0044
rfoot -16.6265 -9.03001
rtoes -0.356227
lfemur -0.513515 1.93645 -25.3824
ltibia 12.8907
lfoot -10.596 6.72044
ltoes -12.2631
310
root 0.570135 17.9141 -0.351709 1.63779 -31.23 3.34461
lowerback 2.11865 -1.19983 -4.40472
upperback -0.93788 -1.68271 2.87133
thorax -1.9439 -0.767708 5.51189
lowerneck -27.8682 -0.683408 -10.0666
upperneck -10.8923 1.64418 7.39389
head 0.670304 1.24923 4.10794
rclavicle -2.48481e-014 0
rhumerus -34.1577 -6.65689 -70.4247
rradius 38.9415
rwrist 14.0998
rhand -27.0141 11.8604
rfingers 7.12502
rthumb -0.433703 -18.1189
lclavicle -2.48481e-014 0
lhumerus 64.4672 15.2727 46.4641
lradius 95.3593
lwrist -4.08558
lhand -40.9904 20.7991
lfingers 7.12502
lthumb -13.9223 50.313
rfemur -11.1339 2.97685 8.78227
rtibia 26.027
rfoot -16.6257 -8.93501
rtoes -0.00489522
lfemur -0.574195 2.08472 -25.4114
ltibia 12.9378
lfoot -10.6104 6.86565
ltoes -12.6732
311
root 0.568689 17.9132 -0.35302 1.59692 -31.2424 3.32863
lowerback 2.18656 -1.21214 -4.42495
upperback -0.903814 -1.70221 2.86018
thorax -1.94416 -0.778009 5.51365
lowerneck -28.0037 -0.642304 -10.0216
upperneck -10.7788 1.69356 7.40517
head 0.717842 1.27404 4.10976
rclavicle 3.58806e-014 -1.43125e-014
rhumerus -34.0833 -6.63701 -70.4938
rradius 38.9018
rwrist 14.0954
rhand -27.0063 11.8907
rfingers 7.12502
rthumb -0.42613 -18.0886
lclavicle 3.58806e-014 -1.43125e-014
lhumerus 64.3943 15.3156 46.4059
lradius 95.3448
lwrist -4.13985
lhand -40.8747 21.0485
lfingers 7.12502
lthumb -13.8109 50.5701
rfemur -11.0934 3.06575 8.80928
rtibia 26.0516
rfoot -16.6172 -9.01926
rtoes -0.189835
lfemur -0.54489 2.13216 -25.3778
ltibia 12.9828
lfoot -10.6414 6.81242
ltoes -12.3686
312
root 0.566825 17.9138 -0.354722 1.6434 -31.2563 3.29045
lowerback 2.19833 -1.21646 -4.43965
upperback -0.910271 -1.70879 2.86623
thorax -1.95605 -0.780585 5.52907
lowerneck -28.0745 -0.601489 -10.0099
upperneck -10.6715 1.74792 7.43764
head 0.755325 1.30274 4.12352
rclavicle -4.60187e-014 9.54166e-015
rhumerus -34.0711 -6.67405 -70.4785
rradius 38.8886
rwrist 14.2965
rhand -26.748 11.9592
rfingers 7.12502
rthumb -0.176716 -18.0204
lclavicle -4.60187e-014 9.54166e-015
lhumerus 64.2984 15.3304 46.3778
lradius 95.395
lwrist -4.12235
lhand -40.8703 21.2297
lfingers 7.12502
lthumb -13.8067 50.7515
rfemur -11.1303 3.12484 8.85217
rtibia 26.0508
rfoot -16.6125 -9.0451
rtoes -0.208798
lfemur -0.594594 2.12927 -25.329
ltibia 13.015
lfoot -10.6739 6.80652
ltoes -12.1806
313
root 0.566139 17.9147 -0.353903 1.68447 -31.2788 3.25123
lowerback 2.2062 -1.19095 -4.43451
upperback -0.93603 -1.67456 2.88949
thorax -1.991 -0.761766 5.55025
lowerneck -28.0066 -0.611079 -10.0872
upperneck -10.6629 1.75398 7.46521
head 0.748811 1.30897 4.14456
rclavicle 1.61016e-014 1.03368e-014
rhumerus -34.125 -6.76575 -70.3123
rradius 38.8686
rwrist 14.6885
rhand -26.4801 12.1099
rfingers 7.12502
rthumb 0.0820953 -17.8699
lclavicle 1.61016e-014 1.03368e-014
lhumerus 64.2562 15.2934 46.3722
lradius 95.3559
lwrist -4.13594
lhand -40.8746 21.4418
lfingers 7.12502
lthumb -13.8108 50.9633
rfemur -11.1467 3.10369 8.89177
rtibia 26.0303
rfoot -16.6381 -8.99063
rtoes -0.0480654
lfemur -0.624782 2.18098 -25.302
ltibia 13.0474
lfoot -10.6809 6.84127
ltoes -12.4339
